<?xml version="1.0" encoding="UTF-8"?>
<svg id="a" data-name="Layer 4" xmlns="http://www.w3.org/2000/svg" viewBox="0 0 600 1000.03">
  <path d="m599.76,168.52l-85.54,16.15c-29.87,5.64-61.37,5.94-91.47.88l-55.83-9.39c-34.13-5.74-69.98-4.56-103.13,3.38l-56.36,13.5c-37.88,9.07-79.14,9.28-117.21.59L0,173.04v-69.44h599.76v64.92Z" style="fill: #f9cc83;"/>
  <path d="m.24,147.71l85.54,16.15c29.87,5.64,61.37,5.94,91.47.88l55.83-9.39c34.13-5.74,69.98-4.56,103.13,3.38l56.36,13.5c37.88,9.07,79.14,9.28,117.21.59l90.22-20.59v-69.44s-599.76,0-599.76,0v64.92Z" style="fill: #f26344;"/>
  <path d="m599.76,116.07l-85.54,16.15c-29.87,5.64-61.37,5.94-91.47.88l-55.83-9.39c-34.13-5.74-69.98-4.56-103.13,3.38l-56.36,13.5c-37.88,9.07-79.14,9.28-117.21.59L0,120.59V0h599.76v116.07Z" style="fill: #dd4832;"/>
</svg>