<?xml version="1.0" encoding="UTF-8"?>
<svg id="a" data-name="Layer 1" xmlns="http://www.w3.org/2000/svg" viewBox="0 0 600 1000.03">
  <path d="m.24,940.88l85.54-8.14c29.87-2.84,61.37-2.99,91.47-.44l55.83,4.73c34.13,2.89,69.98,2.3,103.13-1.7l56.36-6.8c37.88-4.57,79.14-4.68,117.21-.3l90.22,10.37v34.99H.24v-32.71Z" style="fill: #f9cc83;"/>
  <path d="m599.76,951.37l-85.54-8.14c-29.87-2.84-61.37-2.99-91.47-.44l-55.83,4.73c-34.13,2.89-69.98,2.3-103.13-1.7l-56.36-6.8c-37.88-4.57-79.14-4.68-117.21-.3L0,949.1v34.99s599.76,0,599.76,0v-32.71Z" style="fill: #f26344;"/>
  <path d="m.24,967.31l85.54-8.14c29.87-2.84,61.37-2.99,91.47-.44l55.83,4.73c34.13,2.89,69.98,2.3,103.13-1.7l56.36-6.8c37.88-4.57,79.14-4.68,117.21-.3l90.22,10.37v34.99H.24v-32.71Z" style="fill: #dd4832;"/>
</svg>