<?xml version="1.0" encoding="UTF-8"?>
<svg id="b" data-name="Layer 4" xmlns="http://www.w3.org/2000/svg" viewBox="0 0 600 250">
  <path d="m599.76,210.66l-85.54,20.18c-29.87,7.05-61.37,7.43-91.47,1.1l-55.83-11.73c-34.13-7.17-69.98-5.7-103.13,4.22l-56.36,16.87c-37.88,11.34-79.14,11.6-117.21.74L0,216.31v-86.8h599.76v81.15Z" style="fill: #f9cc83;"/>
  <path d="m.24,184.63l85.54,20.18c29.87,7.05,61.37,7.43,91.47,1.1l55.83-11.73c34.13-7.17,69.98-5.7,103.13,4.22l56.36,16.87c37.88,11.34,79.14,11.6,117.21.74l90.22-25.74v-86.8s-599.76,0-599.76,0v81.15Z" style="fill: #f26344;"/>
  <path d="m599.76,145.08l-85.54,20.18c-29.87,7.05-61.37,7.43-91.47,1.1l-55.83-11.73c-34.13-7.17-69.98-5.7-103.13,4.22l-56.36,16.87c-37.88,11.34-79.14,11.6-117.21.74L0,150.73V0h599.76v145.08Z" style="fill: #dd4832;"/>
</svg>