<?xml version="1.0" encoding="UTF-8"?>
<svg id="a" data-name="Layer 4" xmlns="http://www.w3.org/2000/svg" viewBox="0 0 600 1000.03">
  <path d="m600,169l-85.79,15.67c-29.87,5.64-61.37,5.94-91.47.88l-55.83-9.39c-34.13-5.74-69.98-4.56-103.13,3.38l-56.36,13.5c-37.88,9.07-79.14,9.28-117.21.59L0,173.04V0h600v169Z" style="fill: #f9cc83;"/>
  <path d="m0,152l97.75,17.91c29.95,5.21,61.45,5.06,91.47-.43l55.69-10.19c34.04-6.23,69.91-5.57,103.17,1.89l56.55,12.69c38,8.53,79.26,8.14,117.21-1.09l78.17-19.77V0H0v152Z" style="fill: #f26344;"/>
  <path d="m599.76,126.07l-85.54,16.15c-29.87,5.64-61.37,5.94-91.47.88l-55.83-9.39c-34.13-5.74-69.98-4.56-103.13,3.38l-56.36,13.5c-37.88,9.07-79.14,9.28-117.21.59L0,130.59V0h600l-.24,126.07Z" style="fill: #dd4832;"/>
</svg>